<svg width="560" height="360" viewBox="0 0 560 360" fill="none" xmlns="http://www.w3.org/2000/svg">
  <rect width="560" height="360" rx="36" fill="#F9EFE2"/>
  <circle cx="430" cy="86" r="54" fill="#F3E1C6"/>
  <rect x="48" y="70" width="230" height="220" rx="28" fill="#FFF9F2" stroke="#D8C3A6" stroke-width="4"/>
  <rect x="78" y="104" width="170" height="20" rx="10" fill="#4A2C2A"/>
  <rect x="78" y="142" width="122" height="12" rx="6" fill="#C9A961"/>
  <rect x="78" y="168" width="144" height="12" rx="6" fill="#E8D9C7"/>
  <rect x="78" y="194" width="156" height="12" rx="6" fill="#E8D9C7"/>
  <rect x="78" y="230" width="78" height="28" rx="14" fill="#6B3D2E"/>
  <rect x="316" y="108" width="196" height="148" rx="28" fill="#FFF9F2" stroke="#D8C3A6" stroke-width="4"/>
  <rect x="344" y="136" width="140" height="18" rx="9" fill="#4A2C2A"/>
  <rect x="344" y="172" width="34" height="56" rx="17" fill="#D88C5A"/>
  <rect x="392" y="150" width="34" height="78" rx="17" fill="#C9A961"/>
  <rect x="440" y="126" width="34" height="102" rx="17" fill="#8B6B47"/>
  <path d="M352 286C383 246 432 232 477 242C501 247 518 258 532 278" stroke="#C9A961" stroke-width="10" stroke-linecap="round"/>
  <circle cx="130" cy="314" r="20" fill="#D88C5A"/>
  <circle cx="176" cy="314" r="20" fill="#C9A961"/>
  <circle cx="222" cy="314" r="20" fill="#8B6B47"/>
</svg>
